/vscmnt/brussel_pixiu_data/_data_brussel/112/vsc11236/PredSimResults/SUBJ09opt3D/expIG/worker_11.mot
version=1
nRows=11
nColumns=50
inDegrees=yes
endheader
                time	         pelvis_tilt	         pelvis_list	     pelvis_rotation	           pelvis_tx	           pelvis_ty	           pelvis_tz	       hip_flexion_r	     hip_adduction_r	      hip_rotation_r	        knee_angle_r	       ankle_angle_r	         mtp_angle_r	       hip_flexion_l	     hip_adduction_l	      hip_rotation_l	        knee_angle_l	       ankle_angle_l	         mtp_angle_l	    lumbar_extension	      lumbar_bending	     lumbar_rotation	 ercspn_r/activation	 intobl_r/activation	 extobl_r/activation	    abd_r/activation	    add_r/activation	hamstrings_r/activation	bifemsh_r/activation	glut_max_r/activation	iliopsoas_r/activation	rect_fem_r/activation	  vasti_r/activation	gastroc_r/activation	 soleus_r/activation	tib_ant_r/activation	 ercspn_l/activation	 intobl_l/activation	 extobl_l/activation	    abd_l/activation	    add_l/activation	hamstrings_l/activation	bifemsh_l/activation	glut_max_l/activation	iliopsoas_l/activation	rect_fem_l/activation	  vasti_l/activation	gastroc_l/activation	 soleus_l/activation	tib_ant_l/activation	
          0.00000000	         -5.90707052	         -2.77633791	          9.58028892	          0.00000000	          0.97647415	         -0.00406254	         33.23820652	         -0.74327960	         -9.18452641	         -6.09131800	          6.66593952	          0.24532319	        -15.67465334	         -4.18377473	         -1.84180639	         -9.03114043	          1.60418323	         40.52602030	        -12.62845866	          1.60473881	         -7.13219847	          0.06756258	          0.14730843	          0.01653825	          0.01286632	          0.22369945	          0.11166604	          0.21676627	          0.02450620	          0.16014960	          0.00999999	          0.00999999	          0.02735132	          0.01384396	          0.36750398	          0.02449854	          0.01000001	          0.00999999	          0.02312858	          0.01821938	          0.03234506	          0.25908516	          0.01492793	          0.06582549	          0.01000000	          0.01000000	          0.35495861	          0.19933509	          0.01653823	
          0.01095468	         -5.88394665	         -2.91900595	          9.56766341	          0.02224461	          0.97396072	         -0.00354683	         33.29946585	         -0.47616662	         -9.52314440	         -8.05600194	          6.16353828	          0.26472163	        -16.16651876	         -4.55311710	         -2.34727482	        -10.31190604	          0.10103705	         42.40354830	        -12.12232782	          1.98338466	         -7.33200710	          0.05713160	          0.12456550	          0.01398491	          0.01087989	          0.32052380	          0.09442593	          0.18329976	          0.23248163	          0.13542413	          0.01000000	          0.01000000	          0.02312856	          0.01170660	          0.40197507	          0.05125526	          0.01000002	          0.01000001	          0.01955776	          0.11483849	          0.02735131	          0.21908505	          0.01262321	          0.24158085	          0.01000000	          0.01000000	          0.30015661	          0.16855978	          0.01398490	
          0.02190937	         -5.83963993	         -3.07470439	          9.51546541	          0.04477245	          0.97149182	         -0.00300455	         33.20879768	         -0.23812014	         -9.63547065	        -10.21566403	          5.68297271	          0.21051782	        -16.39453246	         -4.94583046	         -2.88142296	        -12.14151870	         -1.36506419	         43.97828445	        -11.60061465	          2.38080666	         -7.49063386	          0.04831108	          0.10533385	          0.01182578	          0.16080854	          0.32302824	          0.08512375	          0.15500014	          0.30672273	          0.11451602	          0.00999999	          0.00999999	          0.01955774	          0.01182577	          0.45792944	          0.08646133	          0.00999999	          0.00999999	          0.01653824	          0.09710859	          0.02312855	          0.18526054	          0.01067431	          0.33504990	          0.00999999	          0.00999999	          0.25381547	          0.14253586	          0.01182577	
          0.03286405	         -5.78178760	         -3.21770513	          9.42128914	          0.06712062	          0.96938963	         -0.00235248	         33.07028743	          0.01005679	         -9.68349618	        -12.28531830	          5.07525181	          0.19613968	        -16.20240777	         -5.34903510	         -3.42437298	        -14.72869736	         -2.78610863	         45.03761783	        -11.11962413	          2.76209771	         -7.60831875	          0.05442007	          0.08907138	          0.01000000	          0.21210757	          0.31288226	          0.07198151	          0.13106969	          0.35456647	          0.09683591	          0.00999999	          0.03190451	          0.01653823	          0.00999999	          0.51757009	          0.07874152	          0.00999999	          0.00999999	          0.01398491	          0.08211602	          0.01955773	          0.15665820	          0.00999999	          0.37051790	          0.00999999	          0.00999999	          0.21462894	          0.12052977	          0.00999999	
          0.04381873	         -5.71193855	         -3.35687496	          9.28803722	          0.08894702	          0.96788514	         -0.00158396	         33.02880804	          0.27001757	         -9.66287618	        -14.48592864	          4.49211950	          0.14809976	        -15.49742890	         -5.78741680	         -3.96746577	        -18.19585938	         -4.11160111	         45.21986957	        -10.71847035	          3.14088683	         -7.67911756	          0.06520864	          0.07531966	          0.00999999	          0.25060853	          0.32403453	          0.06086832	          0.11083386	          0.37078594	          0.08188543	          0.01000000	          0.20759872	          0.01398489	          0.01000000	          0.55138638	          0.15245340	          0.00999999	          0.00999999	          0.01182578	          0.14189485	          0.01653822	          0.13247177	          0.00999999	          0.31331370	          0.00999999	          0.00999999	          0.18149241	          0.10192120	          0.00999999	
          0.05477341	         -5.63535807	         -3.47994843	          9.11602815	          0.11014538	          0.96717264	         -0.00073277	         32.97233985	          0.54035017	         -9.60075746	        -16.67229741	          4.29292349	          0.08893572	        -14.27181220	         -6.25630684	         -4.50637475	        -22.46125654	         -5.60437481	         44.54171316	        -10.40446913	          3.50443188	         -7.70112749	          0.05514109	          0.06369107	          0.00999999	          0.28666741	          0.29084820	          0.05167543	          0.09372224	          0.36052617	          0.06924315	          0.01000000	          0.35316058	          0.01182577	          0.01000000	          0.55440327	          0.15835439	          0.00999999	          0.00999999	          0.01000000	          0.19495175	          0.01398489	          0.11201947	          0.00999999	          0.26494125	          0.00999999	          0.00999999	          0.15347183	          0.08618560	          0.00999999	
          0.06572810	         -5.55860241	         -3.57330409	          8.90035383	          0.13061593	          0.96739997	          0.00015842	         32.77351548	          0.82611504	         -9.48978238	        -18.61086454	          4.51984729	          0.04592495	        -12.55695902	         -6.74554533	         -5.03332799	        -27.36427161	         -7.41305662	         42.82033530	        -10.18476589	          3.84045350	         -7.66755363	          0.04662787	          0.05385782	          0.00999999	          0.32188791	          0.29501722	          0.05275145	          0.07925248	          0.30486460	          0.05855271	          0.00999999	          0.38204488	          0.01000000	          0.01000000	          0.51238509	          0.14953611	          0.00999999	          0.00999999	          0.00999999	          0.21596196	          0.01182577	          0.09472480	          0.00999999	          0.22403701	          0.00999999	          0.00999999	          0.12977733	          0.07287942	          0.04444236	
          0.07668278	         -5.48553430	         -3.63060142	          8.64658833	          0.15030178	          0.96850593	          0.00103783	         32.40288969	          1.12336733	         -9.30694076	        -20.21820050	          5.05400761	          0.02600059	        -10.43089764	         -7.24198274	         -5.47590494	        -32.73894773	         -9.23036019	         39.49384858	        -10.05987469	          4.14512834	         -7.57903798	          0.03942900	          0.04554272	          0.00999999	          0.32989749	          0.26231403	          0.06099190	          0.06701670	          0.25779660	          0.04951277	          0.00999999	          0.42382195	          0.01000000	          0.01000000	          0.45025781	          0.17997950	          0.05610103	          0.01146288	          0.00999999	          0.18261963	          0.01000001	          0.08010026	          0.00999999	          0.18944797	          0.01000000	          0.00999999	          0.10974103	          0.06162758	          0.20245256	
          0.08763746	         -5.41761461	         -3.66495157	          8.35391183	          0.16918657	          0.97032418	          0.00184536	         31.85219408	          1.43542571	         -9.07778886	        -21.44741296	          5.76210204	          0.04486614	         -8.02861358	         -7.67760570	         -5.67342788	        -38.34705146	        -10.41836756	         34.57256887	        -10.02461516	          4.43360915	         -7.42100788	          0.03334156	          0.03851138	          0.00999999	          0.29479698	          0.22181549	          0.05157546	          0.05667000	          0.21799543	          0.04186850	          0.00999999	          0.42952049	          0.01000000	          0.00999999	          0.38325586	          0.19770909	          0.06675701	          0.05888738	          0.01182577	          0.15442501	          0.01000000	          0.06773360	          0.00999999	          0.16019913	          0.01000000	          0.00999999	          0.09279813	          0.05211290	          0.22317240	
          0.09859214	         -5.35532452	         -3.68708905	          8.02039790	          0.18731056	          0.97273840	          0.00252810	         31.13682498	          1.75950265	         -8.82513317	        -22.29987293	          6.48352752	          0.12810303	         -5.49016515	         -7.96722160	         -5.59717401	        -43.89625943	        -10.24498008	         30.02910456	        -10.07203137	          4.71799493	         -7.18975093	          0.02819397	          0.03256562	          0.00999999	          0.26171301	          0.18756944	          0.05039520	          0.04792073	          0.18433915	          0.03540443	          0.00999999	          0.40992202	          0.01000000	          0.00999999	          0.32408506	          0.19436000	          0.06267249	          0.07381348	          0.00999999	          0.13058336	          0.00999999	          0.06531324	          0.00999999	          0.13546601	          0.01000001	          0.00999999	          0.07847104	          0.04406720	          0.24918453	
          0.10954683	         -5.29919029	         -3.68728982	          7.65178100	          0.20479155	          0.97568930	          0.00309316	         30.27572324	          2.07808433	         -8.54385084	        -22.81175579	          7.14400974	          0.27014188	         -2.88186097	         -8.10323000	         -5.35423068	        -49.17943373	         -9.65209479	         26.12752561	        -10.18996793	          4.98178050	         -6.89911951	          0.02384110	          0.02753782	          0.00999999	          0.22130735	          0.15861063	          0.05162748	          0.04052226	          0.15587906	          0.02993834	          0.01000000	          0.36822818	          0.01000000	          0.00999999	          0.27404963	          0.16676110	          0.05570904	          0.08848842	          0.00999999	          0.12872459	          0.00999999	          0.09517550	          0.00999999	          0.11455144	          0.01000001	          0.00999999	          0.06635591	          0.03726367	          0.24636418	
